<svg xmlns="http://www.w3.org/2000/svg" viewBox="0 0 150.76 53.32"><defs><style>.cls-1{fill:#71c0ef;}.cls-2{fill:#f7c86f;}.cls-3{fill:#ed71a3;}.cls-4{fill:#b5def2;}.cls-5,.cls-6{fill:#fff;}.cls-6{fill-rule:evenodd;}</style></defs><g id="Layer_2" data-name="Layer 2"><g id="Layer_1-2" data-name="Layer 1"><path class="cls-1" d="M17.71,23a3.94,3.94,0,0,1-1.37.72,6.38,6.38,0,0,1-1.95.27A7,7,0,0,1,12,23.66a2,2,0,0,1-1.25-1.27q-1.14-3.62-1.89-5.85c-.49-1.49-.87-2.79-1.14-3.91H7.46Q7.34,15,7.28,17c0,1.32-.07,2.61-.08,3.87s0,2.53-.09,3.81S7,27.43,6.93,29a8.45,8.45,0,0,1-1.39.35,11.21,11.21,0,0,1-1.73.14A5.63,5.63,0,0,1,1,28.9a2.18,2.18,0,0,1-1-2.09C0,26,0,24.73.12,23.1s.19-3.42.31-5.39.25-4,.39-6.07.26-4,.37-5.74A4,4,0,0,1,2.62,4.76a6.5,6.5,0,0,1,3.12-.62,7.11,7.11,0,0,1,3.4.68A4,4,0,0,1,11,7c.24.66.51,1.41.8,2.26s.57,1.72.86,2.62l.84,2.69L14.19,17h.2c.66-2.29,1.31-4.51,2-6.66s1.26-3.94,1.8-5.39a6.56,6.56,0,0,1,1.58-.55,9.45,9.45,0,0,1,2.15-.23,7.69,7.69,0,0,1,3.28.6,2.35,2.35,0,0,1,1.48,1.7c.11.54.23,1.38.35,2.52s.25,2.41.39,3.83.27,2.93.41,4.51.26,3.11.39,4.57.22,2.81.31,4,.13,2.15.16,2.81a5.39,5.39,0,0,1-1.46.59,8,8,0,0,1-1.94.19A5.92,5.92,0,0,1,22.63,29a2.28,2.28,0,0,1-1.15-2.1q-.24-4.46-.3-8c0-2.38-.11-4.37-.19-6h-.2c-.28,1.07-.67,2.41-1.19,4S18.45,20.53,17.71,23Z"/><path class="cls-1" d="M53.14,19.19a12.4,12.4,0,0,1-.76,4.43A9.22,9.22,0,0,1,50.2,27a9.68,9.68,0,0,1-3.38,2.11,12.59,12.59,0,0,1-4.43.74A12.77,12.77,0,0,1,38,29.09,9.54,9.54,0,0,1,34.58,27a9.33,9.33,0,0,1-2.17-3.34,12.29,12.29,0,0,1-.76-4.47,11.83,11.83,0,0,1,.78-4.39A9.28,9.28,0,0,1,38,9.35a12.42,12.42,0,0,1,4.38-.74,12,12,0,0,1,4.39.76,9.73,9.73,0,0,1,3.38,2.13,9.4,9.4,0,0,1,2.2,3.34A11.69,11.69,0,0,1,53.14,19.19ZM42.39,14.06a3.08,3.08,0,0,0-2.66,1.34,6.47,6.47,0,0,0-.94,3.79,6.53,6.53,0,0,0,.94,3.87,3.38,3.38,0,0,0,5.33,0A6.55,6.55,0,0,0,46,19.19a6.47,6.47,0,0,0-.94-3.79A3.08,3.08,0,0,0,42.39,14.06Z"/><path class="cls-1" d="M77.16,19.19a12.18,12.18,0,0,1-.76,4.43A9.2,9.2,0,0,1,74.23,27a9.68,9.68,0,0,1-3.38,2.11,12.59,12.59,0,0,1-4.43.74A12.82,12.82,0,0,1,62,29.09,9.5,9.5,0,0,1,58.61,27a9.2,9.2,0,0,1-2.17-3.34,12.29,12.29,0,0,1-.76-4.47,11.83,11.83,0,0,1,.78-4.39A9.3,9.3,0,0,1,62,9.35a12.48,12.48,0,0,1,4.39-.74,12.08,12.08,0,0,1,4.39.76,9.73,9.73,0,0,1,3.38,2.13,9.51,9.51,0,0,1,2.19,3.34A11.69,11.69,0,0,1,77.16,19.19ZM66.42,14.06a3.08,3.08,0,0,0-2.67,1.34,6.55,6.55,0,0,0-.94,3.79,6.61,6.61,0,0,0,.94,3.87,3.12,3.12,0,0,0,2.67,1.29A3.05,3.05,0,0,0,69.08,23a6.55,6.55,0,0,0,1-3.85,6.47,6.47,0,0,0-1-3.79A3.05,3.05,0,0,0,66.42,14.06Z"/><path class="cls-2" d="M87.53,29.11c-.3.08-.73.16-1.29.25a12.93,12.93,0,0,1-1.82.12,5,5,0,0,1-3-.68,3.1,3.1,0,0,1-.91-2.6V14A3.54,3.54,0,0,1,81.18,12a5.58,5.58,0,0,1,1.68-1.54A11.82,11.82,0,0,1,86.2,9.1a17.39,17.39,0,0,1,4-.45q4.47,0,4.47,3.16a4.32,4.32,0,0,1-.21,1.37A4.41,4.41,0,0,1,94,14.27a11.52,11.52,0,0,0-2.25-.17,10.6,10.6,0,0,0-2.2.25,6.91,6.91,0,0,0-2,.74Z"/><path class="cls-2" d="M105,8.61a16.88,16.88,0,0,1,4,.45,9.13,9.13,0,0,1,3.11,1.37,6.15,6.15,0,0,1,2,2.34,7.41,7.41,0,0,1,.7,3.34V25.3a2.56,2.56,0,0,1-.59,1.74,6,6,0,0,1-1.42,1.17,14.72,14.72,0,0,1-7.5,1.6,17.35,17.35,0,0,1-3.92-.41,9.57,9.57,0,0,1-3-1.23,5.76,5.76,0,0,1-1.93-2.09,6.21,6.21,0,0,1-.67-3,5.55,5.55,0,0,1,1.68-4.34,9.08,9.08,0,0,1,5.2-1.89l5.38-.57V16a1.76,1.76,0,0,0-1-1.7,7.06,7.06,0,0,0-3-.51,14,14,0,0,0-3,.33,15.73,15.73,0,0,0-2.68.81,2.72,2.72,0,0,1-.9-1.12,3.52,3.52,0,0,1-.37-1.58,2.63,2.63,0,0,1,.51-1.7,3.9,3.9,0,0,1,1.58-1.09A12.5,12.5,0,0,1,102,8.81,25.55,25.55,0,0,1,105,8.61Zm.33,16.11a8.8,8.8,0,0,0,1.54-.14,4,4,0,0,0,1.25-.39V20.91l-3,.25a4.5,4.5,0,0,0-1.88.49,1.32,1.32,0,0,0-.74,1.23,1.62,1.62,0,0,0,.64,1.33A3.48,3.48,0,0,0,105.33,24.72Z"/><path class="cls-3" d="M130.17,8.61a10.67,10.67,0,0,1,3.8.68,8.63,8.63,0,0,1,3.09,2,9.2,9.2,0,0,1,2.07,3.28,12.56,12.56,0,0,1,.76,4.56,12.26,12.26,0,0,1-.8,4.57A9.33,9.33,0,0,1,136.86,27a9.72,9.72,0,0,1-3.51,2.07,13.82,13.82,0,0,1-4.57.72,14.6,14.6,0,0,1-4.59-.64,11.8,11.8,0,0,1-3.2-1.58,3.85,3.85,0,0,1-1.8-3.28V2.42a11.4,11.4,0,0,1,1.29-.25,12.93,12.93,0,0,1,1.82-.12,5,5,0,0,1,3,.68,3.1,3.1,0,0,1,.91,2.6V9.39A11.52,11.52,0,0,1,128,8.84,10,10,0,0,1,130.17,8.61Zm-1.31,5.45a5,5,0,0,0-1.49.21,5.4,5.4,0,0,0-1.25.53v8.9a5.17,5.17,0,0,0,2.58.61,3.65,3.65,0,0,0,3-1.31,5.88,5.88,0,0,0,1.11-3.89,5.8,5.8,0,0,0-1-3.84A3.6,3.6,0,0,0,128.86,14.06Z"/><path class="cls-3" d="M143.13,3.69a3.58,3.58,0,0,1,1.05-2.62A3.68,3.68,0,0,1,146.94,0a3.71,3.71,0,0,1,2.77,1.07,3.58,3.58,0,0,1,1,2.62,3.58,3.58,0,0,1-1,2.62,3.71,3.71,0,0,1-2.77,1.07,3.68,3.68,0,0,1-2.76-1.07A3.58,3.58,0,0,1,143.13,3.69Zm.33,5.82a11.82,11.82,0,0,1,1.29-.24,11.54,11.54,0,0,1,1.82-.13,5,5,0,0,1,3,.68,3.1,3.1,0,0,1,.9,2.6V29.11c-.3.08-.73.16-1.29.25a13,13,0,0,1-1.83.12,5,5,0,0,1-2.95-.68,3.1,3.1,0,0,1-.9-2.6Z"/><rect class="cls-4" x="0.2" y="34.32" width="150" height="19" rx="4"/><path class="cls-4" d="M144.7,51.32H5.7a3.11,3.11,0,0,1-3-3.22V39.53a3.11,3.11,0,0,1,3-3.21h139c1.66,0,3,1.44,3,6.43v5.41a3.11,3.11,0,0,1-2.95,3.16Z"/><rect class="cls-5" x="135.31" y="50.58" width="1.88" height="1.15"/><rect class="cls-5" x="138.68" y="50.58" width="1.88" height="1.15"/><polygon class="cls-6" points="144.07 51.72 143.68 50.58 142.04 50.58 142.06 51.72 144.07 51.72"/><rect class="cls-5" x="125.17" y="50.58" width="1.88" height="1.15"/><rect class="cls-5" x="128.54" y="50.58" width="1.88" height="1.15"/><rect class="cls-5" x="131.91" y="50.58" width="1.88" height="1.15"/><rect class="cls-5" x="115.02" y="50.58" width="1.88" height="1.15"/><rect class="cls-5" x="118.4" y="50.58" width="1.88" height="1.15"/><rect class="cls-5" x="121.76" y="50.58" width="1.88" height="1.15"/><rect class="cls-5" x="104.88" y="50.58" width="1.88" height="1.15"/><rect class="cls-5" x="108.26" y="50.58" width="1.88" height="1.15"/><rect class="cls-5" x="111.62" y="50.58" width="1.88" height="1.15"/><rect class="cls-5" x="94.74" y="50.58" width="1.88" height="1.15"/><rect class="cls-5" x="98.11" y="50.58" width="1.88" height="1.15"/><rect class="cls-5" x="101.48" y="50.58" width="1.88" height="1.15"/><rect class="cls-5" x="84.59" y="50.58" width="1.88" height="1.15"/><rect class="cls-5" x="87.97" y="50.58" width="1.88" height="1.15"/><rect class="cls-5" x="91.34" y="50.58" width="1.88" height="1.15"/><rect class="cls-5" x="74.45" y="50.58" width="1.88" height="1.15"/><rect class="cls-5" x="77.83" y="50.58" width="1.88" height="1.15"/><rect class="cls-5" x="81.19" y="50.58" width="1.88" height="1.15"/><rect class="cls-5" x="64.31" y="50.58" width="1.88" height="1.15"/><rect class="cls-5" x="67.68" y="50.58" width="1.88" height="1.15"/><rect class="cls-5" x="71.05" y="50.58" width="1.88" height="1.15"/><rect class="cls-5" x="54.16" y="50.58" width="1.88" height="1.15"/><rect class="cls-5" x="57.54" y="50.58" width="1.88" height="1.15"/><rect class="cls-5" x="60.91" y="50.58" width="1.88" height="1.15"/><rect class="cls-5" x="44.02" y="50.58" width="1.88" height="1.15"/><rect class="cls-5" x="47.4" y="50.58" width="1.88" height="1.15"/><rect class="cls-5" x="50.76" y="50.58" width="1.88" height="1.15"/><rect class="cls-5" x="33.88" y="50.58" width="1.88" height="1.15"/><rect class="cls-5" x="37.26" y="50.58" width="1.88" height="1.15"/><rect class="cls-5" x="40.62" y="50.58" width="1.88" height="1.15"/><rect class="cls-5" x="23.74" y="50.58" width="1.88" height="1.15"/><rect class="cls-5" x="27.11" y="50.58" width="1.88" height="1.15"/><rect class="cls-5" x="30.48" y="50.58" width="1.88" height="1.15"/><rect class="cls-5" x="13.59" y="50.58" width="1.88" height="1.15"/><rect class="cls-5" x="16.97" y="50.58" width="1.88" height="1.15"/><rect class="cls-5" x="20.33" y="50.58" width="1.88" height="1.15"/><path class="cls-6" d="M5.14,51.66l.59-1.11a2.5,2.5,0,0,1-1.44-.71l-.9.92A3.25,3.25,0,0,0,5.14,51.66Z"/><polygon class="cls-6" points="8.71 51.72 8.71 50.58 7.04 50.58 6.71 51.72 8.71 51.72"/><rect class="cls-5" x="10.19" y="50.58" width="1.88" height="1.15"/><polygon class="cls-6" points="2.3 42.47 3.44 42.47 3.44 40.78 2.3 40.49 2.3 42.47"/><polygon class="cls-6" points="2.3 45.87 3.44 45.81 3.44 43.97 2.3 43.97 2.3 45.87"/><path class="cls-6" d="M2.54,49.42l1.06-.69a5,5,0,0,1-.16-1.63l-1.14.35A5.67,5.67,0,0,0,2.54,49.42Z"/><polygon class="cls-6" points="8 35.91 8.08 37.06 9.91 37.06 9.91 35.91 8 35.91"/><path class="cls-6" d="M4.44,36.18l.72,1a4.21,4.21,0,0,1,1.62-.17L6.4,35.92A5,5,0,0,0,4.44,36.18Z"/><path class="cls-6" d="M2.37,38.88l1.1.58A2.88,2.88,0,0,1,4.12,38l-.93-.88A3.52,3.52,0,0,0,2.37,38.88Z"/><rect class="cls-5" x="18.17" y="35.91" width="1.88" height="1.15"/><rect class="cls-5" x="14.79" y="35.91" width="1.88" height="1.15"/><rect class="cls-5" x="11.42" y="35.91" width="1.88" height="1.15"/><rect class="cls-5" x="28.31" y="35.91" width="1.88" height="1.15"/><rect class="cls-5" x="24.93" y="35.91" width="1.88" height="1.15"/><rect class="cls-5" x="21.57" y="35.91" width="1.88" height="1.15"/><rect class="cls-5" x="38.45" y="35.91" width="1.88" height="1.15"/><rect class="cls-5" x="35.08" y="35.91" width="1.88" height="1.15"/><rect class="cls-5" x="31.71" y="35.91" width="1.88" height="1.15"/><rect class="cls-5" x="48.6" y="35.91" width="1.88" height="1.15"/><rect class="cls-5" x="45.22" y="35.91" width="1.88" height="1.15"/><rect class="cls-5" x="41.85" y="35.91" width="1.88" height="1.15"/><rect class="cls-5" x="58.74" y="35.91" width="1.88" height="1.15"/><rect class="cls-5" x="55.36" y="35.91" width="1.88" height="1.15"/><rect class="cls-5" x="52" y="35.91" width="1.88" height="1.15"/><rect class="cls-5" x="68.88" y="35.91" width="1.88" height="1.15"/><rect class="cls-5" x="65.5" y="35.91" width="1.88" height="1.15"/><rect class="cls-5" x="62.14" y="35.91" width="1.88" height="1.15"/><rect class="cls-5" x="79.02" y="35.91" width="1.88" height="1.15"/><rect class="cls-5" x="75.65" y="35.91" width="1.88" height="1.15"/><rect class="cls-5" x="72.28" y="35.91" width="1.88" height="1.15"/><rect class="cls-5" x="89.17" y="35.91" width="1.88" height="1.15"/><rect class="cls-5" x="85.79" y="35.91" width="1.88" height="1.15"/><rect class="cls-5" x="82.43" y="35.91" width="1.88" height="1.15"/><rect class="cls-5" x="99.31" y="35.91" width="1.88" height="1.15"/><rect class="cls-5" x="95.93" y="35.91" width="1.88" height="1.15"/><rect class="cls-5" x="92.57" y="35.91" width="1.88" height="1.15"/><rect class="cls-5" x="109.45" y="35.91" width="1.88" height="1.15"/><rect class="cls-5" x="106.08" y="35.91" width="1.88" height="1.15"/><rect class="cls-5" x="102.71" y="35.91" width="1.88" height="1.15"/><rect class="cls-5" x="119.6" y="35.91" width="1.88" height="1.15"/><rect class="cls-5" x="116.22" y="35.91" width="1.88" height="1.15"/><rect class="cls-5" x="112.85" y="35.91" width="1.88" height="1.15"/><rect class="cls-5" x="129.74" y="35.91" width="1.88" height="1.15"/><rect class="cls-5" x="126.36" y="35.91" width="1.88" height="1.15"/><rect class="cls-5" x="123" y="35.91" width="1.88" height="1.15"/><rect class="cls-5" x="139.88" y="35.91" width="1.88" height="1.15"/><rect class="cls-5" x="136.51" y="35.91" width="1.88" height="1.15"/><rect class="cls-5" x="133.14" y="35.91" width="1.88" height="1.15"/><path class="cls-6" d="M147.94,40.09l-1.11.37a14.56,14.56,0,0,1,.12,1.66l1.15,0A19.47,19.47,0,0,0,147.94,40.09Z"/><path class="cls-6" d="M146.69,36.79l-.85.94a3.82,3.82,0,0,1,.73,1.45l1-.64A4.83,4.83,0,0,0,146.69,36.79Z"/><path class="cls-6" d="M143.38,35.91l-.27,1.15a14.91,14.91,0,0,1,1.64,0l.61-1.1A14.36,14.36,0,0,0,143.38,35.91Z"/><path class="cls-6" d="M147.28,50.47l-.95-.87a2.61,2.61,0,0,1-1.34.89l.67,1.08A3.36,3.36,0,0,0,147.28,50.47Z"/><path class="cls-6" d="M148.11,47.08,147,46.8a8.86,8.86,0,0,1-.07,1.63l1.09.63A10,10,0,0,0,148.11,47.08Z"/><rect class="cls-5" x="146.96" y="43.61" width="1.15" height="1.88"/><path class="cls-5" d="M15.52,40.76v6.6H14.14v-6.6Zm4.31,0-3,3.43-.11-.11L15.05,46l-.21-1.28,3.39-3.91ZM17.19,43l2.72,4.32H18.33l-2.2-3.55Z"/><rect class="cls-5" x="27.93" y="40.76" width="1.38" height="6.6"/><path class="cls-5" d="M40.58,40.76a3.21,3.21,0,0,1,2.4.85,3.94,3.94,0,0,1,0,4.89,3.22,3.22,0,0,1-2.4.86H38v-6.6Zm-.07,5.5a1.75,1.75,0,0,0,1.42-.57,2.49,2.49,0,0,0,.47-1.63,2.52,2.52,0,0,0-.47-1.64,1.77,1.77,0,0,0-1.42-.56h-1.1v4.4Z"/><path class="cls-5" d="M54.59,40.66a3.71,3.71,0,0,1,1.58.31,3,3,0,0,1,1.16.92l-.77.89a2.76,2.76,0,0,0-.89-.77,2.54,2.54,0,0,0-1.13-.24,1.72,1.72,0,0,0-.69.11.79.79,0,0,0-.4.29.64.64,0,0,0-.13.4.57.57,0,0,0,.21.45,1.62,1.62,0,0,0,.72.31l1.23.28a2.77,2.77,0,0,1,1.41.65,1.56,1.56,0,0,1,.42,1.13A1.81,1.81,0,0,1,57,46.5a2,2,0,0,1-.95.71,3.57,3.57,0,0,1-1.4.25,4.52,4.52,0,0,1-1.26-.17,3.87,3.87,0,0,1-1-.45,3.26,3.26,0,0,1-.75-.67l.78-.93a3.08,3.08,0,0,0,.57.57,2.85,2.85,0,0,0,.78.39,2.76,2.76,0,0,0,.91.15,2,2,0,0,0,.7-.1.89.89,0,0,0,.43-.27.69.69,0,0,0,0-.87,1.23,1.23,0,0,0-.65-.28l-1.34-.3a4.36,4.36,0,0,1-1-.37,1.55,1.55,0,0,1-.63-.58,1.53,1.53,0,0,1-.22-.84,1.84,1.84,0,0,1,.32-1.06,2.2,2.2,0,0,1,.93-.75A3.51,3.51,0,0,1,54.59,40.66Z"/><path class="cls-5" d="M78.09,40.66a3.71,3.71,0,0,1,1.58.31,3,3,0,0,1,1.16.92l-.77.89a2.76,2.76,0,0,0-.89-.77A2.54,2.54,0,0,0,78,41.77a1.72,1.72,0,0,0-.69.11.79.79,0,0,0-.4.29.64.64,0,0,0-.13.4A.57.57,0,0,0,77,43a1.62,1.62,0,0,0,.72.31l1.23.28a2.77,2.77,0,0,1,1.41.65,1.56,1.56,0,0,1,.42,1.13,1.81,1.81,0,0,1-.34,1.11,2,2,0,0,1-1,.71,3.57,3.57,0,0,1-1.4.25,4.52,4.52,0,0,1-1.26-.17,3.87,3.87,0,0,1-1-.45,3.26,3.26,0,0,1-.75-.67l.78-.93a3.08,3.08,0,0,0,.57.57,2.85,2.85,0,0,0,.78.39,2.76,2.76,0,0,0,.91.15,2,2,0,0,0,.7-.1.89.89,0,0,0,.43-.27.69.69,0,0,0,0-.87,1.23,1.23,0,0,0-.65-.28l-1.34-.3a4.36,4.36,0,0,1-1-.37,1.55,1.55,0,0,1-.63-.58,1.53,1.53,0,0,1-.22-.84,1.84,1.84,0,0,1,.32-1.06,2.2,2.2,0,0,1,.93-.75A3.51,3.51,0,0,1,78.09,40.66Z"/><polygon class="cls-5" points="94.15 40.76 94.15 41.87 91.94 41.87 91.94 47.36 90.56 47.36 90.56 41.87 88.34 41.87 88.34 40.76 94.15 40.76"/><path class="cls-5" d="M104.88,40.66a3.23,3.23,0,0,1,1.69.41,2.77,2.77,0,0,1,1.1,1.17,4,4,0,0,1,.38,1.82,4.11,4.11,0,0,1-.38,1.82,2.89,2.89,0,0,1-1.1,1.17,3.69,3.69,0,0,1-3.38,0,2.76,2.76,0,0,1-1.1-1.17,4,4,0,0,1-.39-1.82,3.91,3.91,0,0,1,.39-1.82,2.65,2.65,0,0,1,1.1-1.17A3.26,3.26,0,0,1,104.88,40.66Zm0,1.13a1.62,1.62,0,0,0-.94.26,1.52,1.52,0,0,0-.6.77,3.25,3.25,0,0,0-.21,1.24,3.28,3.28,0,0,0,.21,1.24,1.56,1.56,0,0,0,.6.77,1.7,1.7,0,0,0,.94.26,1.55,1.55,0,0,0,1.54-1,3.5,3.5,0,0,0,.2-1.24,3.46,3.46,0,0,0-.2-1.24,1.63,1.63,0,0,0-.6-.77A1.6,1.6,0,0,0,104.88,41.79Z"/><path class="cls-5" d="M119.35,40.76a2.63,2.63,0,0,1,1.76.54,2,2,0,0,1,0,2.93,2.67,2.67,0,0,1-1.75.52l-.14.08H117.8v2.53h-1.36v-6.6Zm-.16,3a1.33,1.33,0,0,0,.87-.24.87.87,0,0,0,.28-.72.89.89,0,0,0-.28-.73,1.39,1.39,0,0,0-.87-.23H117.8v1.92Zm.81.29,2.14,3.29h-1.55l-1.77-2.89Z"/><polygon class="cls-5" points="130.24 47.36 130.24 40.76 135.19 40.76 135.19 41.87 131.62 41.87 131.62 43.51 134.43 43.51 134.43 44.57 131.62 44.57 131.62 46.25 135.33 46.25 135.33 47.36 130.24 47.36"/></g></g></svg>